<svg xmlns="http://www.w3.org/2000/svg" viewBox="0 0 36 36" fill="none">
  <defs>
    <linearGradient id="brandGradient" x1="0%" y1="100%" x2="100%" y2="0%">
      <stop offset="0%" stop-color="#7c3aed" />
      <stop offset="100%" stop-color="#8b5cf6" />
    </linearGradient>
  </defs>
  
  <rect width="36" height="36" rx="10" fill="url(#brandGradient)" />
  
  <g transform="translate(8, 8)">
    <path d="M9.937 15.5A2 2 0 0 0 8.5 14.063l-6.135-1.582a.5.5 0 0 1 0-.962l6.135-1.582a2 2 0 0 0 1.437-1.437l1.582-6.135a.5.5 0 0 1 .963 0l1.582 6.135a2 2 0 0 0 1.437 1.437l6.135 1.582a.5.5 0 0 1 0 .962l-6.135 1.582a2 2 0 0 0-1.437 1.437l-1.582 6.135a.5.5 0 0 1-.963 0z" fill="white" />
  </g>
</svg>